<?xml version="1.0" encoding="UTF-8"?>
<svg version="1.1" xmlns="http://www.w3.org/2000/svg" width="1371" height="598">
<path d="M0 0 C452.43 0 904.86 0 1371 0 C1371 197.34 1371 394.68 1371 598 C918.57 598 466.14 598 0 598 C0 400.66 0 203.32 0 0 Z " fill="#000000" transform="translate(0,0)"/>
<path d="M0 0 C22.00922215 -0.35066346 44.0179828 -0.61503819 66.02943325 -0.77718258 C76.25030928 -0.85447724 86.46944819 -0.95981442 96.68920898 -1.1315918 C105.59868488 -1.28127384 114.50690287 -1.37791098 123.41760117 -1.41132742 C128.13502618 -1.43085907 132.84885334 -1.47661486 137.5651226 -1.58595085 C142.00934244 -1.68814077 146.44850236 -1.71911285 150.89378548 -1.69661522 C152.52058108 -1.7007269 154.14755359 -1.73037887 155.77333069 -1.78808212 C160.89624339 -1.96091885 165.17900663 -1.86069928 170 0 C173.82722558 3.68486133 176.06707716 8.42459691 178.19885743 13.22420681 C179.24491904 15.54288159 180.49673339 17.71885445 181.78515625 19.91015625 C182.54690814 21.29282114 183.30609153 22.67690469 184.0625 24.0625 C186.47765686 28.45646586 188.89617191 32.84519273 191.41015625 37.18359375 C191.78454834 37.82997803 192.15894043 38.4763623 192.54467773 39.14233398 C193.56019452 40.88856386 194.58070989 42.63188409 195.6015625 44.375 C197 47 197 47 197 49 C197.66 49 198.32 49 199 49 C200.00484204 50.95585325 201.00373805 52.91476237 202 54.875 C202.556875 55.96554688 203.11375 57.05609375 203.6875 58.1796875 C205 61 205 61 205 63 C205.66 63 206.32 63 207 63 C207.33 64.65 207.66 66.3 208 68 C207.34 68 206.68 68 206 68 C205.731875 68.556875 205.46375 69.11375 205.1875 69.6875 C203.89100504 72.21225334 202.57523677 74.63714484 201 77 C200.34 77 199.68 77 199 77 C198.71125 77.5775 198.4225 78.155 198.125 78.75 C197.08333333 80.83333333 196.04166667 82.91666667 195 85 C194.34 85 193.68 85 193 85 C192.74863281 85.55300781 192.49726563 86.10601562 192.23828125 86.67578125 C190.78491288 89.40371242 189.05898744 91.72574751 187.1875 94.1875 C186.80223145 94.69579346 186.41696289 95.20408691 186.02001953 95.7277832 C184.68371746 97.48803898 183.34202139 99.24410122 182 101 C180.92052172 102.41662766 179.84109702 103.83329614 178.76171875 105.25 C173.73208834 111.8437894 168.70231624 118.43674085 163.5625 124.9453125 C161.78415791 127.13287479 161.78415791 127.13287479 160.33520508 130.57202148 C158.36691372 133.30054066 157.32979472 133.92789878 153.99716187 134.65649414 C150.00787124 134.90969924 146.06894406 134.94453359 142.07421875 134.90234375 C140.60160621 134.91173234 139.12901033 134.92419232 137.65644836 134.93959045 C133.79111378 134.97178915 129.92696671 134.96238511 126.06158447 134.94421387 C122.11319022 134.93304788 118.16509877 134.96136695 114.21679688 134.98632812 C106.47762252 135.02945349 98.73927694 135.02861569 91 135 C91.83136475 135.25692627 92.66272949 135.51385254 93.51928711 135.77856445 C96.64501954 136.74506381 99.77047371 137.71245337 102.89575195 138.68041992 C104.24069595 139.09678486 105.58574548 139.51280905 106.9309082 139.9284668 C119.54146847 143.8255942 119.54146847 143.8255942 125.23120117 145.74243164 C129.54215212 147.18090468 133.85749609 148.13508742 138.30078125 149.05859375 C142.78495733 150.62253939 145.41657846 154.12486769 148 158 C148 158.66 148 159.32 148 160 C148.66 160 149.32 160 150 160 C150.61875 161.30324219 150.61875 161.30324219 151.25 162.6328125 C152.96274878 165.92832466 154.85840932 168.84370437 157 171.875 C157.79058024 173.00375524 158.58093358 174.13266942 159.37109375 175.26171875 C160.00120361 176.15769775 160.00120361 176.15769775 160.64404297 177.07177734 C163.12734197 180.60312331 165.59914245 184.14221915 168.0625 187.6875 C168.79629883 188.73043213 168.79629883 188.73043213 169.54492188 189.79443359 C173 194.77315669 173 194.77315669 173 197 C173.66 197 174.32 197 175 197 C176.5078125 199.1171875 176.5078125 199.1171875 178.125 201.875 C178.66382813 202.77992188 179.20265625 203.68484375 179.7578125 204.6171875 C181 207 181 207 181 209 C172.35071089 209.0927549 163.70159346 209.16379244 155.05191517 209.20724869 C151.03532635 209.22810753 147.01907827 209.25639332 143.00268555 209.30175781 C139.12528328 209.34527746 135.24820836 209.36914992 131.37058067 209.37950897 C129.89259374 209.38688947 128.41462437 209.40130214 126.93677711 209.42292023 C124.86346609 209.45203761 122.79150077 209.45595283 120.71801758 209.45410156 C119.53887283 209.46298401 118.35972809 209.47186646 117.14485168 209.48101807 C112.00360191 208.69464266 109.70622703 205.9593118 106.7109375 201.890625 C105.92453872 200.68209297 105.14626887 199.46824343 104.375 198.25 C103.50634331 196.91332423 102.63650806 195.57741379 101.765625 194.2421875 C101.31638672 193.54963867 100.86714844 192.85708984 100.40429688 192.14355469 C98.0295301 188.51864991 95.57962298 184.94611534 93.125 181.375 C92.67302246 180.71274414 92.22104492 180.05048828 91.75537109 179.36816406 C89.29854051 175.79142897 86.71552283 172.38710375 84 169 C81.94522524 165.8036837 80.20599546 162.61798638 79 159 C78.34 159 77.68 159 77 159 C75.86330245 157.25446445 74.81687611 155.44988474 73.8125 153.625 C70.97292787 148.60842256 67.93486873 143.88031079 64.5703125 139.203125 C63.2092203 137.29353296 61.93812196 135.3574674 60.6875 133.375 C60.130625 132.59125 59.57375 131.8075 59 131 C58.34 131 57.68 131 57 131 C54.37627118 137.49319511 54.37627118 137.49319511 51.8671875 144.03125 C49.39916489 150.63443631 46.63734687 156.98368936 43.59106445 163.33154297 C41.05844236 168.68946412 39.10670227 174.17976781 37.18359375 179.78515625 C35.79118509 183.56717714 34.06043663 187.0589765 32.1953125 190.625 C29.22282155 196.53112581 27.08752758 202.73741727 25 209 C4.87 209 -15.26 209 -36 209 C-34.88425047 201.18975332 -34.88425047 201.18975332 -33.1875 198.21875 C-30.6569481 193.47739103 -28.85046645 188.53818406 -27 183.5 C-24.8879384 177.74958228 -22.68511942 172.21241626 -19.8659668 166.77124023 C-18.64111097 164.26593179 -17.86338024 161.6496842 -17 159 C-15.61397454 155.62355597 -14.14703957 152.28270241 -12.6875 148.9375 C-9.26322618 141.02169068 -5.9989801 133.08780065 -3 125 C-2.125 122.6875 -2.125 122.6875 -1.25 120.375 C-0.46733768 118.26181172 0.28739036 116.13782892 1 114 C1.66 114 2.32 114 3 114 C3.07863281 113.0409375 3.15726563 112.081875 3.23828125 111.09375 C3.94765185 106.16158161 6.06581364 101.96596035 8.1875 97.5 C11.67848876 89.97360111 14.91434238 82.41318679 17.90625 74.67578125 C19 72 19 72 20 71 C21.90243762 70.90608704 23.80838459 70.88256342 25.71313477 70.88647461 C26.9343251 70.88655014 28.15551544 70.88662567 29.41371155 70.88670349 C30.75627686 70.89181089 32.09884175 70.89702689 33.44140625 70.90234375 C34.80761158 70.90420801 36.17381757 70.90563187 37.5400238 70.90663147 C41.14201695 70.91045606 44.74397 70.92028583 48.34594727 70.93133545 C52.01903745 70.94155084 55.69213409 70.94612936 59.36523438 70.95117188 C66.57684123 70.96190816 73.788415 70.97898386 81 71 C80.53084113 72.42246786 80.06036854 73.84450246 79.58935547 75.26635742 C79.19657913 76.45427132 79.19657913 76.45427132 78.79586792 77.66618347 C77.68198389 80.9325558 76.41896413 84.11256167 75.125 87.3125 C74.73646851 88.27506714 74.73646851 88.27506714 74.34008789 89.25708008 C71.50850477 96.25321515 68.61324202 103.22333516 65.6484375 110.1640625 C64.98714844 111.72253906 64.98714844 111.72253906 64.3125 113.3125 C63.91675781 114.23675781 63.52101563 115.16101563 63.11328125 116.11328125 C61.85545084 119.37481345 60.91738071 122.62789283 60 126 C60.81984375 125.38511719 61.6396875 124.77023437 62.484375 124.13671875 C65.65625 121.7578125 68.828125 119.37890625 72 117 C72.74765625 116.40832031 73.4953125 115.81664062 74.265625 115.20703125 C76 114 76 114 78 114 C78 113.34 78 112.68 78 112 C79.34521484 110.76318359 79.34521484 110.76318359 81.2109375 109.3984375 C81.87867188 108.90859375 82.54640625 108.41875 83.234375 107.9140625 C83.94078125 107.40617187 84.6471875 106.89828125 85.375 106.375 C86.42300781 105.6015625 86.42300781 105.6015625 87.4921875 104.8125 C92.73689649 101 92.73689649 101 95 101 C95 100.34 95 99.68 95 99 C96.39370336 98.0256785 97.79509494 97.06067028 99.23144531 96.15039062 C102.24299192 94.19147185 105.04156316 91.95520876 107.875 89.75 C108.46796875 89.29109375 109.0609375 88.8321875 109.671875 88.359375 C111.115967 87.24136829 112.5581824 86.12093832 114 85 C115.49260414 89.02582666 114.69826933 92.92677127 114.125 97.0625 C113.98771484 98.14241211 113.98771484 98.14241211 113.84765625 99.24414062 C113.44605829 102.29006315 112.97383485 105.07849544 112 108 C112.99 108 113.98 108 115 108 C115.18046875 107.32710938 115.3609375 106.65421875 115.546875 105.9609375 C117.64267287 101.69046766 120.8376577 98.88670147 124.25 95.625 C128.67978217 91.34316733 132.91640523 87.08351603 136.76464844 82.26318359 C137.17231445 81.84633301 137.57998047 81.42948242 138 81 C138.66 81 139.32 81 140 81 C140 80.34 140 79.68 140 79 C142.51103078 76.34548175 145.11746313 73.89785815 147.875 71.5 C150.29248238 69.24911234 150.29248238 69.24911234 149.82641602 66.67382812 C148.89234762 63.65169605 147.60422678 61.38502542 145.90234375 58.71875 C144.95234497 57.21646851 144.95234497 57.21646851 143.9831543 55.68383789 C143.30808838 54.63317139 142.63302246 53.58250488 141.9375 52.5 C140.56725875 50.34273342 139.19746356 48.18518343 137.828125 46.02734375 C137.16748047 44.99077637 136.50683594 43.95420898 135.82617188 42.88623047 C132.94697573 38.33571484 130.17755858 33.72133987 127.41796875 29.09765625 C126.16873105 26.87996718 126.16873105 26.87996718 124 26 C124.01160156 26.67804688 124.02320313 27.35609375 124.03515625 28.0546875 C124.04417969 28.98539063 124.05320312 29.91609375 124.0625 30.875 C124.07410156 31.77992188 124.08570313 32.68484375 124.09765625 33.6171875 C124.01395597 36.51656527 123.79121371 39.32878611 123.49389648 42.21142578 C123.40196518 43.10902618 123.31003387 44.00662659 123.21531677 44.931427 C123.14426224 45.61405609 123.0732077 46.29668518 123 47 C111.160842 47.30175965 99.32260418 47.53246551 87.48037815 47.67355824 C81.98073187 47.74129357 76.4837235 47.83308262 70.9855957 47.98071289 C65.67501565 48.12240807 60.36696473 48.19977935 55.05463982 48.23340416 C53.0325532 48.25734991 51.01059898 48.3041186 48.98959541 48.37449074 C33.58566484 48.88932376 33.58566484 48.88932376 29.29563522 45.75463486 C26.00075592 42.29585973 24.0490659 38.29675449 22 34 C20.75798288 32.06453573 19.49135761 30.14435577 18.1875 28.25 C17.55199219 27.28835937 16.91648438 26.32671875 16.26171875 25.3359375 C14.49733046 22.70366976 12.67270769 20.11851384 10.83203125 17.5390625 C10.28200439 16.76788086 9.73197754 15.99669922 9.1652832 15.20214844 C8.0678158 13.66849365 6.96618156 12.1378108 5.86010742 10.61035156 C5.35970947 9.91135742 4.85931152 9.21236328 4.34375 8.4921875 C3.89193359 7.86683105 3.44011719 7.24147461 2.97460938 6.59716797 C2 5 2 5 2 3 C1.34 3 0.68 3 0 3 C0 2.01 0 1.02 0 0 Z " fill="#FBFBFB" transform="translate(196,195)"/>
<path d="M0 0 C1.06565186 0.00563965 2.13130371 0.0112793 3.22924805 0.01708984 C15.85746054 0.21168126 25.44558871 2.58329041 36.3125 9.3125 C36.3125 9.9725 36.3125 10.6325 36.3125 11.3125 C36.9003125 11.56773437 37.488125 11.82296875 38.09375 12.0859375 C44.48778572 15.62066852 48.72259817 22.66204482 51.3125 29.3125 C56.51854351 47.57603969 52.89110096 64.8502848 44.37890625 81.44458008 C42.74812135 84.30106708 40.78576194 86.78616455 38.6875 89.3125 C37.91148438 90.26125 37.13546875 91.21 36.3359375 92.1875 C35.66820312 92.88875 35.00046875 93.59 34.3125 94.3125 C33.6525 94.3125 32.9925 94.3125 32.3125 94.3125 C32.3125 94.9725 32.3125 95.6325 32.3125 96.3125 C22.70916709 104.23249007 13.50410675 108.12461572 1.3125 110.3125 C0.49265625 110.50328125 -0.3271875 110.6940625 -1.171875 110.890625 C-15.09818971 113.22609393 -28.75881932 110.46396658 -41.6875 105.3125 C-41.6875 104.6525 -41.6875 103.9925 -41.6875 103.3125 C-42.6775 103.0340625 -42.6775 103.0340625 -43.6875 102.75 C-53.76803303 97.91974459 -60.4040148 87.95383202 -64.10522461 77.6394043 C-65.27556256 72.96246886 -65.11635335 68.23044794 -65.0625 63.4375 C-65.07410156 62.41269531 -65.08570313 61.38789063 -65.09765625 60.33203125 C-65.06000617 50.45515962 -62.58491619 42.35959618 -58 33.6875 C-57.67966797 33.06488281 -57.35933594 32.44226563 -57.02929688 31.80078125 C-56.25622222 30.30078564 -55.47300014 28.80602629 -54.6875 27.3125 C-54.0275 27.3125 -53.3675 27.3125 -52.6875 27.3125 C-52.42839844 26.56742187 -52.16929688 25.82234375 -51.90234375 25.0546875 C-46.97247034 13.92680604 -33.31858821 7.7039809 -22.70703125 3.35546875 C-14.94586365 0.67470323 -8.18228622 -0.04496115 0 0 Z " fill="#F9F9F9" transform="translate(1163.6875,244.6875)"/>
<path d="M0 0 C8.58 0 17.16 0 26 0 C27.32 3.3 28.64 6.6 30 10 C30.48082031 11.19625 30.96164062 12.3925 31.45703125 13.625 C34.48113665 21.154761 37.45169505 28.70332707 40.37841797 36.27148438 C41.82034054 39.99330126 43.27826872 43.70703998 44.77734375 47.40625 C45.05707031 48.0971875 45.33679688 48.788125 45.625 49.5 C46.39145878 51.38666777 47.16238442 53.27151911 47.93359375 55.15625 C49 58 49 58 49 60 C56.32771051 53.1302714 62.13457786 44.84303294 68.2175293 36.88867188 C71.62086707 32.45399994 75.15019157 28.13360208 78.7109375 23.82421875 C82.05236306 19.70160667 85.24859524 15.47366254 88.4453125 11.23828125 C88.85418701 10.73055176 89.26306152 10.22282227 89.68432617 9.69970703 C91.06847713 7.96532793 91.06847713 7.96532793 92.37231445 5.84326172 C94.92408875 2.23686045 96.66148107 0.27529747 101.08984375 -0.63549805 C104.73764406 -0.78740491 108.29226912 -0.69879602 111.9375 -0.5 C113.19369141 -0.46390625 114.44988281 -0.4278125 115.74414062 -0.390625 C118.83258778 -0.29667984 121.91469438 -0.165449 125 0 C123.81696418 6.72615645 122.52301822 13.40524457 121 20.0625 C119.96249724 24.6218383 118.95498337 29.18009021 118.05859375 33.76953125 C116.87519378 39.75638057 115.46165346 45.68559358 114.0625 51.625 C112.12162197 59.93641549 110.34944427 68.22251951 108.85546875 76.625 C106.94443097 86.81720147 104.36468761 96.91066618 102 107 C92.76 107 83.52 107 74 107 C75.15949442 100.0430335 76.23578304 93.71189457 78 87 C78.61319367 84.35062536 79.1890324 81.69355043 79.76171875 79.03515625 C79.91663284 78.31637802 80.07154694 77.59759979 80.2311554 76.85704041 C80.55378728 75.35563868 80.87557234 73.85405475 81.1965332 72.35229492 C81.52665 70.8126801 81.85937644 69.27362275 82.19458008 67.73510742 C82.6808789 65.50295096 83.1596816 63.26930788 83.63671875 61.03515625 C83.78872238 60.34357925 83.94072601 59.65200226 84.09733582 58.93946838 C84.44245822 57.30167972 84.72767649 55.65145423 85 54 C84.67 53.67 84.34 53.34 84 53 C83.39414062 53.78761719 82.78828125 54.57523437 82.1640625 55.38671875 C81.76372803 55.90709717 81.36339355 56.42747559 80.95092773 56.96362305 C80.05959465 58.12247094 79.16848495 59.28149069 78.27758789 60.44067383 C75.90507251 63.52698443 73.52886308 66.61030649 71.14453125 69.6875 C70.69062012 70.27442627 70.23670898 70.86135254 69.76904297 71.46606445 C68.89312323 72.59846454 68.0158803 73.72984257 67.13720703 74.86010742 C64.86299928 77.79686608 64.86299928 77.79686608 63 81 C62.34 81 61.68 81 61 81 C60.74605469 81.71542969 60.49210938 82.43085938 60.23046875 83.16796875 C57.91715409 88.49226439 54.77226764 92.65941265 50 96 C44.83919207 96.84645458 40.20545017 96.61724706 35 96 C30.83477785 85.80745639 26.91687494 75.53237699 23.07250977 65.21484375 C22.70311279 64.22355469 22.33371582 63.23226562 21.953125 62.2109375 C21.62473633 61.32712402 21.29634766 60.44331055 20.95800781 59.53271484 C20.00323251 57.00854588 19.01038721 54.5023661 18 52 C14.87564829 62.80658121 12.49176355 73.73807117 10.19482422 84.74707031 C9.95393066 85.8965918 9.71303711 87.04611328 9.46484375 88.23046875 C9.254646 89.24520264 9.04444824 90.25993652 8.82788086 91.30541992 C7.65043635 96.55999608 6.30602554 101.77589783 5 107 C-4.24 107 -13.48 107 -23 107 C-22.38149885 102.0519908 -21.78071341 97.59643196 -20.66015625 92.8125 C-20.2724707 91.14574219 -20.2724707 91.14574219 -19.87695312 89.4453125 C-19.60818359 88.30835938 -19.33941406 87.17140625 -19.0625 86 C-18.79759766 84.86304688 -18.53269531 83.72609375 -18.25976562 82.5546875 C-17.17272647 77.90442571 -16.07540583 73.25920586 -14.890625 68.6328125 C-14.01445566 65.05896389 -13.32530916 61.49838213 -12.6875 57.875 C-11.2919271 50.15874206 -9.57742218 42.52688416 -7.80151367 34.89013672 C-6.60920638 29.7506375 -5.51091996 24.60503688 -4.4934082 19.42822266 C-3.70670776 15.55661327 -2.79446298 11.71684745 -1.875 7.875 C-1.25625 5.27625 -0.6375 2.6775 0 0 Z " fill="#FAFAFA" transform="translate(864,247)"/>
<path d="M0 0 C1.08235428 -0.00960754 2.16470856 -0.01921509 3.27986145 -0.02911377 C4.46198715 -0.03336365 5.64411285 -0.03761353 6.86206055 -0.04199219 C8.07516403 -0.04769226 9.28826752 -0.05339233 10.53813171 -0.05926514 C13.11818566 -0.06873918 15.69825184 -0.0752586 18.27832031 -0.07910156 C22.19382578 -0.08873203 26.10878952 -0.11970176 30.02416992 -0.15136719 C32.53263035 -0.15790457 35.04109454 -0.16315215 37.54956055 -0.16699219 C39.28934929 -0.18551239 39.28934929 -0.18551239 41.06428528 -0.20440674 C54.75766513 -0.16761699 64.65782776 2.75133225 74.84643555 11.97363281 C81.31439209 18.74383031 82.31351783 26.86119859 82.21362305 35.90722656 C81.26449679 47.04275015 75.85432583 57.73169598 67.8112793 65.41113281 C54.20824038 76.67117339 38.66462222 78.66556977 21.6237793 78.34863281 C20.1895488 78.33353565 18.75530266 78.31985627 17.32104492 78.30761719 C13.85912291 78.27506281 10.39780693 78.22356902 6.9362793 78.16113281 C6.75669678 79.18364136 6.75669678 79.18364136 6.57348633 80.22680664 C5.46025228 86.47029307 4.21531776 92.66457327 2.8112793 98.84863281 C2.1925293 101.59175781 1.5737793 104.33488281 0.9362793 107.16113281 C-8.9637207 107.16113281 -18.8637207 107.16113281 -29.0637207 107.16113281 C-26.81348059 92.53457209 -26.81348059 92.53457209 -25.66137695 87.44238281 C-25.4106543 86.32476562 -25.15993164 85.20714844 -24.90161133 84.05566406 C-24.64573242 82.93546875 -24.38985352 81.81527344 -24.1262207 80.66113281 C-23.74820313 78.98083984 -23.74820313 78.98083984 -23.36254883 77.26660156 C-21.12114488 67.32646233 -18.8414088 57.39464997 -16.47949219 47.48242188 C-15.06460658 41.53975787 -13.71309001 35.60161317 -12.5559082 29.60253906 C-11.74287954 25.5696588 -10.79491228 21.56878316 -9.85668945 17.56347656 C-9.30677698 15.20399988 -8.76851247 12.84178986 -8.23950195 10.47753906 C-7.97524414 9.300625 -7.71098633 8.12371094 -7.4387207 6.91113281 C-7.19895508 5.83347656 -6.95918945 4.75582031 -6.7121582 3.64550781 C-5.5995021 -0.61743965 -4.13882523 0.02954763 0 0 Z " fill="#FBFBFB" transform="translate(1013.063720703125,246.8388671875)"/>
<path d="M0 0 C7.20729162 -0.07006935 14.41450763 -0.12309604 21.62207317 -0.15543652 C24.97030543 -0.17097274 28.31812527 -0.19365263 31.66625977 -0.22631836 C35.531474 -0.26306131 39.3963606 -0.27980858 43.26171875 -0.29296875 C44.44142746 -0.30845261 45.62113617 -0.32393646 46.83659363 -0.33988953 C60.60072658 -0.34262488 71.30401023 2.10026953 81.62109375 11.47265625 C87.85901826 18.11780432 88.46233405 26.35706925 88.34692383 35.05297852 C87.92520963 46.98847104 83.52077679 55.28076478 75.203125 63.8515625 C64.97564103 73 64.97564103 73 60 73 C60.59637091 74.58628608 61.20245925 76.16892059 61.8125 77.75 C62.14894531 78.63171875 62.48539063 79.5134375 62.83203125 80.421875 C63.89965252 83.02587672 63.89965252 83.02587672 65.59375 85.125 C67.47599051 87.63465401 67.65091412 89.9280443 68 93 C68.66 93 69.32 93 70 93 C71.00484204 94.95585325 72.00373805 96.91476237 73 98.875 C73.556875 99.96554687 74.11375 101.05609375 74.6875 102.1796875 C76 105 76 105 76 107 C65.44 107 54.88 107 44 107 C40.125 98.625 40.125 98.625 38.91455078 95.99072266 C38.59470215 95.3054248 38.27485352 94.62012695 37.9453125 93.9140625 C37.62062988 93.2123291 37.29594727 92.5105957 36.96142578 91.78759766 C36.01591727 89.82403992 36.01591727 89.82403992 34 88 C33.18359375 86.125 33.18359375 86.125 32.4375 84 C31.70063036 81.92302028 30.98624907 79.97249813 30 78 C24.39 77.67 18.78 77.34 13 77 C12.67 79.31 12.34 81.62 12 84 C11.62386889 85.90920625 11.22730861 87.81452247 10.80859375 89.71484375 C10.60806396 90.63128662 10.40753418 91.54772949 10.20092773 92.49194336 C9.94899658 93.62897705 9.69706543 94.76601074 9.4375 95.9375 C8.633125 99.588125 7.82875 103.23875 7 107 C-2.9 107 -12.8 107 -23 107 C-22.30569047 100.05690469 -21.42094735 93.71376445 -19.8125 87 C-19.36001751 85.08479113 -18.90822607 83.16941889 -18.45703125 81.25390625 C-18.21936035 80.24859863 -17.98168945 79.24329102 -17.73681641 78.20751953 C-16.95430197 74.80106671 -16.22885193 71.3856299 -15.51171875 67.96484375 C-15.25994873 66.79501953 -15.00817871 65.62519531 -14.7487793 64.41992188 C-14.2583511 62.13903899 -13.7814228 59.85520171 -13.31958008 57.56835938 C-12.02840146 51.68294484 -11.11206847 47.67093837 -6 44 C-3.54290954 42.53326385 -1.02748706 41.27665323 1.5625 40.0625 C2.98318698 39.37653826 4.40375872 38.69033781 5.82421875 38.00390625 C6.52595215 37.66891113 7.22768555 37.33391602 7.95068359 36.98876953 C9.86165989 36.06674737 11.75557446 35.11853129 13.64453125 34.15234375 C14.71058594 33.60707031 15.77664063 33.06179688 16.875 32.5 C17.82117188 32.0153125 18.76734375 31.530625 19.7421875 31.03125 C22 30 22 30 24 30 C23.88406494 30.54938232 23.76812988 31.09876465 23.64868164 31.66479492 C23.11968524 34.17230658 22.59108912 36.67990246 22.0625 39.1875 C21.78889648 40.48397461 21.78889648 40.48397461 21.50976562 41.80664062 C21.33251953 42.64775391 21.15527344 43.48886719 20.97265625 44.35546875 C20.81031494 45.12528076 20.64797363 45.89509277 20.48071289 46.68823242 C19.97441611 49.12303397 19.48481408 51.56083812 19 54 C22.66752428 53.918329 26.33348093 53.80555924 30 53.6875 C31.02996094 53.66494141 32.05992187 53.64238281 33.12109375 53.61914062 C40.26101506 53.36901599 46.56646666 52.78394595 52.3125 48.125 C52.869375 47.42375 53.42625 46.7225 54 46 C54.86625 44.9790625 54.86625 44.9790625 55.75 43.9375 C57.70614617 39.34055649 57.92042228 34.9040099 57 30 C55.01944375 27.06441825 52.52025828 25.48815441 49.11785889 24.39564514 C46.67011996 23.93837388 44.35465211 23.83782813 41.86425781 23.79467773 C40.84350159 23.77473251 39.82274536 23.75478729 38.77105713 23.73423767 C37.67613953 23.71752518 36.58122192 23.70081268 35.453125 23.68359375 C34.3267865 23.66281265 33.200448 23.64203156 32.03997803 23.62062073 C28.44338051 23.55525667 24.84671023 23.49630115 21.25 23.4375 C18.8111904 23.3943023 16.37238816 23.3506876 13.93359375 23.30664062 C7.955806 23.1995887 1.97794593 23.09779783 -4 23 C-3.45925214 17.37896224 -2.66826074 11.94916768 -1.4375 6.4375 C-1.16808594 5.21933594 -0.89867187 4.00117188 -0.62109375 2.74609375 C-0.41613281 1.83988281 -0.21117187 0.93367187 0 0 Z " fill="#FAFAFA" transform="translate(458,247)"/>
<path d="M0 0 C27.39 0 54.78 0 83 0 C82 9 82 9 79 23 C61.18 23 43.36 23 25 23 C24.67 25.97 24.34 28.94 24 32 C23.34 34.97 22.68 37.94 22 41 C37.51 41 53.02 41 69 41 C67.4613248 48.69337599 65.76418807 56.35518502 64 64 C48.16 64 32.32 64 16 64 C15.67 66.97 15.34 69.94 15 73 C14.32611923 76.44837423 13.578936 79.84212801 12 83 C30.81 83 49.62 83 69 83 C67.53818986 91.03995578 65.83749952 99.03750207 64 107 C35.62 107 7.24 107 -22 107 C-22 101.09067958 -21.77962792 97.00403745 -20.5390625 91.4296875 C-20.38843353 90.74496368 -20.23780457 90.06023987 -20.08261108 89.35476685 C-19.76539871 87.92036631 -19.44419688 86.48684258 -19.11914062 85.05419922 C-18.62506467 82.87528522 -18.14354128 80.69388651 -17.6640625 78.51171875 C-16.34388592 72.57291631 -14.94946516 66.76856932 -13 61 C-12.67018425 59.61130211 -12.36916387 58.21525627 -12.10546875 56.8125 C-11.95722656 56.04284912 -11.80898438 55.27319824 -11.65625 54.48022461 C-11.5015625 53.66175049 -11.346875 52.84327637 -11.1875 52 C-9.59220109 43.78679842 -7.82677716 35.62643129 -5.92651367 27.47851562 C-3.80860956 18.34322417 -1.93389024 9.18597866 0 0 Z " fill="#FBFBFB" transform="translate(568,247)"/>
<path d="M0 0 C27.39 0 54.78 0 83 0 C82 9 82 9 79 23 C61.18 23 43.36 23 25 23 C24.67 26.3 24.34 29.6 24 33 C23.34 35.64 22.68 38.28 22 41 C29.26 41 36.52 41 44 41 C44.66 37.7 45.32 34.4 46 31 C46.66 31 47.32 31 48 31 C48 31.66 48 32.32 48 33 C49.485 33.495 49.485 33.495 51 34 C52.2109375 35.453125 52.2109375 35.453125 53.375 37.25 C55.61709179 40.54917411 58.13749606 43.2108936 61 46 C62.35555293 47.64864545 63.69631653 49.31003995 65 51 C63.57771206 54.37972152 61.92512566 56.14428836 59.04296875 58.3828125 C58.25986328 58.99253906 57.47675781 59.60226562 56.66992188 60.23046875 C55.85072266 60.85566406 55.03152344 61.48085938 54.1875 62.125 C53.37990234 62.75792969 52.57230469 63.39085937 51.74023438 64.04296875 C47.90973243 66.9981963 44.58276113 69.34367713 40 71 C40 71.66 40 72.32 40 73 C38.02 73.495 38.02 73.495 36 74 C36.66 70.7 37.32 67.4 38 64 C30.74 64.33 23.48 64.66 16 65 C14.68 70.94 13.36 76.88 12 83 C30.48 83 48.96 83 68 83 C66.84433761 91.08963672 64.8716561 99.04546159 63 107 C34.62 107 6.24 107 -23 107 C-19.59992224 88.86625194 -19.59992224 88.86625194 -17.6875 80.75 C-15.7235544 72.26792294 -13.86819748 63.76710822 -12.0625 55.25 C-10.01144324 45.60762962 -7.89397782 35.98305578 -5.6875 26.375 C-5.43299072 25.2602832 -5.17848145 24.14556641 -4.91625977 22.99707031 C-4.67963623 21.97452148 -4.4430127 20.95197266 -4.19921875 19.8984375 C-3.99127686 18.99786621 -3.78333496 18.09729492 -3.5690918 17.16943359 C-3 15 -3 15 -2 13 C-1.34 8.71 -0.68 4.42 0 0 Z " fill="#FAFAFA" transform="translate(765,247)"/>
<path d="M0 0 C0.495 0.99 0.495 0.99 1 2 C1.66 2 2.32 2 3 2 C4.66706003 4.13479629 6.22024163 6.26978522 7.75 8.5 C8.6474922 9.78841941 9.54592613 11.07618335 10.4453125 12.36328125 C10.88133789 12.98928223 11.31736328 13.6152832 11.76660156 14.26025391 C13.75719211 17.06804255 15.88511102 19.76570461 18.0390625 22.44921875 C19 24 19 24 19 27 C17.19140625 28.76953125 17.19140625 28.76953125 14.5625 30.8125 C13.57507813 31.59238281 12.58765625 32.37226563 11.5703125 33.17578125 C10.73161621 33.83441162 10.73161621 33.83441162 9.87597656 34.50634766 C5.41251676 38.06015389 1.05138676 41.7425521 -3.33569336 45.38989258 C-4.04089111 45.97279053 -4.74608887 46.55568848 -5.47265625 47.15625 C-6.10437744 47.68025391 -6.73609863 48.20425781 -7.38696289 48.74414062 C-9 50 -9 50 -11 51 C-10.34 46.71 -9.68 42.42 -9 38 C-12.63 38 -16.26 38 -20 38 C-20.11214844 39.41539062 -20.22429688 40.83078125 -20.33984375 42.2890625 C-20.92755745 48.12122658 -22.18158016 53.68620576 -23.5625 59.375 C-24.10318346 61.65586636 -24.64214325 63.93714177 -25.1796875 66.21875 C-25.47069336 67.45238281 -25.76169922 68.68601562 -26.06152344 69.95703125 C-28.02254214 78.34967183 -29.84716859 86.77428646 -31.69656372 95.19207764 C-32.18566932 97.41741687 -32.676751 99.64231371 -33.16796875 101.8671875 C-33.44922607 103.14706543 -33.7304834 104.42694336 -34.02026367 105.74560547 C-35.27208442 111.18149593 -36.64709549 116.58838197 -38 122 C-47.57 122 -57.14 122 -67 122 C-65.87442519 110.74425186 -65.87442519 110.74425186 -64.984375 106.546875 C-64.68926025 105.139823 -64.68926025 105.139823 -64.38818359 103.7043457 C-64.17758301 102.72941162 -63.96698242 101.75447754 -63.75 100.75 C-63.53037598 99.71512451 -63.31075195 98.68024902 -63.08447266 97.61401367 C-60.99433569 87.82904862 -58.78793797 78.07080097 -56.53466797 68.32226562 C-56.07018244 66.30482894 -55.61439299 64.28539394 -55.16015625 62.265625 C-53.31807251 54.10071331 -51.16197705 46.10741395 -49 38 C-59.56 38 -70.12 38 -81 38 C-80 29 -80 29 -77 15 C-52.58 15 -28.16 15 -3 15 C-2.67 12.03 -2.34 9.06 -2 6 C-1.3974699 3.97975201 -0.75679435 1.96766531 0 0 Z " fill="#FBFBFB" transform="translate(737,232)"/>
<path d="M0 0 C5.69840461 5.05008313 8.46953798 9.77116013 9.24609375 17.42578125 C9.8156837 29.35264959 5.60861069 39.98923664 -1.75 49.1875 C-10.70273488 56.39942532 -18.73922084 57.48688513 -30 57 C-35.28586799 56.3535858 -39.23147418 54.87037787 -43 51 C-49.22968435 42.42315412 -49.44699829 35.52258147 -49 25 C-47.46581819 15.79490913 -41.43946447 6.6205974 -34 1 C-24.68560176 -4.82365901 -9.57473838 -5.57075687 0 0 Z " fill="#030303" transform="translate(1178,273)"/>
<path d="M0 0 C3.35409194 -0.05859857 6.70805017 -0.09379582 10.0625 -0.125 C11.00544922 -0.14175781 11.94839844 -0.15851563 12.91992188 -0.17578125 C19.36772931 -0.22071371 25.18849611 -0.23478514 30.4375 3.9375 C32.81109506 8.58974631 32.74059367 12.88183779 32 18 C30.32329405 22.53119558 27.52166089 26.71876132 23.14477539 28.94262695 C16.83098058 31.13685515 11.08023018 31.35895366 4.4375 31.1875 C3.42880859 31.17396484 2.42011719 31.16042969 1.38085938 31.14648438 C-1.08000621 31.11149576 -3.53970335 31.06241158 -6 31 C-5.36810218 23.97649204 -4.05780811 17.29544275 -2.4375 10.4375 C-2.20353516 9.42880859 -1.96957031 8.42011719 -1.72851562 7.38085938 C-1.15691285 4.91946783 -0.5806646 2.45926653 0 0 Z " fill="#020202" transform="translate(1032,270)"/>
<path d="M0 0 C1.07365377 3.2209613 0.93405499 4.23714565 0.22265625 7.44921875 C-0.05288086 8.72055664 -0.05288086 8.72055664 -0.33398438 10.01757812 C-0.53314453 10.89865234 -0.73230469 11.77972656 -0.9375 12.6875 C-1.13279297 13.58017578 -1.32808594 14.47285156 -1.52929688 15.39257812 C-2.01255202 17.59669306 -2.50302834 19.7989445 -3 22 C-3.66 21.34 -4.32 20.68 -5 20 C-6.97536745 20.34786708 -6.97536745 20.34786708 -9 21 C-9.99 21 -10.98 21 -12 21 C-12 20.34 -12 19.68 -12 19 C-12.66 18.67 -13.32 18.34 -14 18 C-12.41727985 15.93702698 -10.83384324 13.87461051 -9.25 11.8125 C-8.8065625 11.23435547 -8.363125 10.65621094 -7.90625 10.06054688 C-5.30669974 6.67730867 -2.67770532 3.32210637 0 0 Z " fill="#0C0C0C" transform="translate(949,298)"/>
<path d="M0 0 C0.66 0.66 1.32 1.32 2 2 C1.69347955 4.9425963 1.32728846 7.34542308 0 10 C0.66 10.33 1.32 10.66 2 11 C2 12.65 2 14.3 2 16 C1.278125 16.12375 0.55625 16.2475 -0.1875 16.375 C-3.02557421 17.00568316 -5.41144551 17.67074229 -8 19 C-9.34410262 21.01735205 -9.34410262 21.01735205 -10 23 C-11.32 22.34 -12.64 21.68 -14 21 C-12.625 19 -12.625 19 -11 17 C-10.34 17 -9.68 17 -9 17 C-8.5978125 15.88625 -8.5978125 15.88625 -8.1875 14.75 C-7.04723249 12.10938051 -5.90619694 10.14447156 -4 8 C-3.34 8 -2.68 8 -2 8 C-2 6.02 -2 4.04 -2 2 C-1.34 2 -0.68 2 0 2 C0 1.34 0 0.68 0 0 Z " fill="#0A0A0A" transform="translate(406,255)"/>
<path d="M0 0 C0 0.99 0 1.98 0 3 C0.66 3 1.32 3 2 3 C1.34 4.32 0.68 5.64 0 7 C-0.99 7 -1.98 7 -3 7 C-2.34 5.02 -1.68 3.04 -1 1 C-31.69 1.495 -31.69 1.495 -63 2 C-63 1.34 -63 0.68 -63 0 C-55.52421193 -0.15409386 -48.04833108 -0.30227251 -40.57227802 -0.4429636 C-37.10061042 -0.50848113 -33.62900666 -0.5760124 -30.1574707 -0.64819336 C-26.16367567 -0.73114401 -22.16975859 -0.80525002 -18.17578125 -0.87890625 C-16.93290848 -0.90594131 -15.69003571 -0.93297638 -14.40950012 -0.96083069 C-12.66826118 -0.99097511 -12.66826118 -0.99097511 -10.8918457 -1.02172852 C-9.87258499 -1.04171402 -8.85332428 -1.06169952 -7.80317688 -1.08229065 C-5.08405145 -1.00246743 -2.64398306 -0.61845664 0 0 Z " fill="#121212" transform="translate(278,265)"/>
<path d="M0 0 C0.75 1.75 0.75 1.75 1 4 C-0.4375 5.8125 -0.4375 5.8125 -3 8 C-9.66543714 13.69535005 -15.85585056 19.75420103 -22 26 C-22.66 25.67 -23.32 25.34 -24 25 C-22.75160427 23.58191941 -21.50120779 22.16560005 -20.25 20.75 C-19.55390625 19.96109375 -18.8578125 19.1721875 -18.140625 18.359375 C-16.14733768 16.16239409 -14.18795991 14.00409773 -12 12 C-11.34 12 -10.68 12 -10 12 C-10 11.34 -10 10.68 -10 10 C-8.38025441 8.28769752 -6.7041054 6.62836738 -5 5 C-4.071875 4.071875 -3.14375 3.14375 -2.1875 2.1875 C-1.465625 1.465625 -0.74375 0.74375 0 0 Z " fill="#D5D5D5" transform="translate(346,264)"/>
<path d="M0 0 C1.09898702 3.29696105 0.87124444 4.40494903 0.0625 7.6875 C-0.13214844 8.49574219 -0.32679688 9.30398438 -0.52734375 10.13671875 C-0.68332031 10.75160156 -0.83929687 11.36648438 -1 12 C-1.66 12 -2.32 12 -3 12 C-3.66 12.66 -4.32 13.32 -5 14 C-5.66 13.34 -6.32 12.68 -7 12 C-7.33 13.32 -7.66 14.64 -8 16 C-8.66 16 -9.32 16 -10 16 C-10.33 16.66 -10.66 17.32 -11 18 C-11 13.88205403 -10.98140052 13.47717337 -8.59375 10.546875 C-8.09746094 9.928125 -7.60117187 9.309375 -7.08984375 8.671875 C-6.56519531 8.03765625 -6.04054688 7.4034375 -5.5 6.75 C-4.71302734 5.77546875 -4.71302734 5.77546875 -3.91015625 4.78125 C-2.61541043 3.18047335 -1.30882422 1.58928656 0 0 Z " fill="#272727" transform="translate(949,298)"/>
<path d="M0 0 C4.02550319 1.3418344 4.88285636 3.4227573 7 7 C7 7.66 7 8.32 7 9 C5.35 9.66 3.7 10.32 2 11 C1.34 10.34 0.68 9.68 0 9 C0 8.67 0 8.34 0 8 C-2.51083114 9.25541557 -2.87125446 10.50063488 -4 13 C-4.33 12.34 -4.66 11.68 -5 11 C-4.00390625 8.3984375 -4.00390625 8.3984375 -2.5625 5.375 C-2.08941406 4.37210937 -1.61632812 3.36921875 -1.12890625 2.3359375 C-0.75636719 1.56507813 -0.38382813 0.79421875 0 0 Z " fill="#181818" transform="translate(253,325)"/>
<path d="M0 0 C0.99 0.33 1.98 0.66 3 1 C3.6875 3.0625 3.6875 3.0625 4 5 C4.99 4.67 5.98 4.34 7 4 C7.66 4.66 8.32 5.32 9 6 C7.38405168 8.04119788 5.7143618 10.04072937 4 12 C3.34 12 2.68 12 2 12 C1.30300448 10.54618103 0.61766134 9.08677047 -0.0625 7.625 C-0.44535156 6.81289063 -0.82820312 6.00078125 -1.22265625 5.1640625 C-1.47917969 4.44992187 -1.73570312 3.73578125 -2 3 C-1 1 -1 1 0 0 Z " fill="#181818" transform="translate(911,295)"/>
<path d="M0 0 C0.91644287 0.00523682 1.83288574 0.01047363 2.77709961 0.01586914 C3.76645508 0.0190918 4.75581055 0.02231445 5.77514648 0.02563477 C6.81606445 0.03401367 7.85698242 0.04239258 8.92944336 0.05102539 C10.49662109 0.05779297 10.49662109 0.05779297 12.09545898 0.06469727 C14.68600996 0.07652627 17.27644895 0.0930085 19.86694336 0.11352539 C19.53694336 3.08352539 19.20694336 6.05352539 18.86694336 9.11352539 C16.86694336 6.11352539 16.86694336 6.11352539 16.86694336 2.11352539 C11.25694336 2.11352539 5.64694336 2.11352539 -0.13305664 2.11352539 C-0.13305664 2.77352539 -0.13305664 3.43352539 -0.13305664 4.11352539 C-0.13305664 4.77352539 -0.13305664 5.43352539 -0.13305664 6.11352539 C-2.13305664 7.73852539 -2.13305664 7.73852539 -4.13305664 9.11352539 C-3.13900537 0.16706392 -3.13900537 0.16706392 0 0 Z " fill="#1D1D1D" transform="translate(783.133056640625,310.886474609375)"/>
<path d="M0 0 C1.3950848 2.29778673 2.07438619 3.4792967 1.6875 6.1875 C1 8 1 8 0 9 C-2.29151417 9.08790975 -4.58572524 9.10694038 -6.87890625 9.09765625 C-7.90889992 9.09553383 -7.90889992 9.09553383 -8.95970154 9.09336853 C-11.16067801 9.08775479 -13.36155409 9.07520007 -15.5625 9.0625 C-17.05143083 9.05748676 -18.54036324 9.05292355 -20.02929688 9.04882812 C-23.68623075 9.03778093 -27.34310558 9.02050713 -31 9 C-31 7.02 -31 5.04 -31 3 C-30.67 3 -30.34 3 -30 3 C-30 4.65 -30 6.3 -30 8 C-20.43 8 -10.86 8 -1 8 C-0.67 5.36 -0.34 2.72 0 0 Z " fill="#2B2B2B" transform="translate(700,346)"/>
<path d="M0 0 C0.66 0.33 1.32 0.66 2 1 C1.34 1.556875 0.68 2.11375 0 2.6875 C-2.25492211 4.84062308 -2.25492211 4.84062308 -2.25 7.75 C-2.12625 8.86375 -2.12625 8.86375 -2 10 C-2.99 10.495 -2.99 10.495 -4 11 C-4 11.66 -4 12.32 -4 13 C-5.175625 13.2165625 -5.175625 13.2165625 -6.375 13.4375 C-8.96421018 13.87798925 -8.96421018 13.87798925 -11 15 C-9.58319756 10.67953102 -7.46236215 7.99538801 -4.375 4.6875 C-3.55773438 3.80449219 -2.74046875 2.92148437 -1.8984375 2.01171875 C-0.95871094 1.01591797 -0.95871094 1.01591797 0 0 Z " fill="#232323" transform="translate(1144,274)"/>
<path d="M0 0 C0.33 0.66 0.66 1.32 1 2 C1.66 2 2.32 2 3 2 C3 2.66 3 3.32 3 4 C3.66 4 4.32 4 5 4 C4 6 4 6 2 7 C1.34786708 9.02463255 1.34786708 9.02463255 1 11 C-0.65 11.33 -2.3 11.66 -4 12 C-3.33501617 7.61110675 -1.81242323 4.0188515 0 0 Z " fill="#E2E2E1" transform="translate(179,354)"/>
<path d="M0 0 C2.17282078 3.25923117 2.76261647 5.12273569 3 9 C1.5625 11.375 1.5625 11.375 0 13 C-0.33 12.34 -0.66 11.68 -1 11 C-1.33 12.32 -1.66 13.64 -2 15 C-1.34 15.33 -0.68 15.66 0 16 C-0.66 16.33 -1.32 16.66 -2 17 C-2.66 17.99 -3.32 18.98 -4 20 C-3.56615452 12.96871122 -2.25678003 6.670985 0 0 Z " fill="#2C2C2C" transform="translate(636,291)"/>
<path d="M0 0 C5.28 0 10.56 0 16 0 C15.67 1.65 15.34 3.3 15 5 C13.24859857 4.54705135 11.49892656 4.08741252 9.75 3.625 C8.77546875 3.36976563 7.8009375 3.11453125 6.796875 2.8515625 C4 2 4 2 0 0 Z " fill="#0F1110" transform="translate(283,329)"/>
<path d="M0 0 C3.875 1.75 3.875 1.75 5 4 C4.66015625 6.3828125 4.66015625 6.3828125 4.0625 9.125 C3.86785156 10.03507812 3.67320312 10.94515625 3.47265625 11.8828125 C3.31667969 12.58148438 3.16070313 13.28015625 3 14 C2.01 13.67 1.02 13.34 0 13 C-1.29676812 8.38926889 -0.71109139 4.66159911 0 0 Z " fill="#E9E9E9" transform="translate(705,302)"/>
<path d="M0 0 C2.97 0.495 2.97 0.495 6 1 C5.67 1.99 5.34 2.98 5 4 C10.61 4 16.22 4 22 4 C22 4.33 22 4.66 22 5 C14.74 5 7.48 5 0 5 C0 3.35 0 1.7 0 0 Z " fill="#121212" transform="translate(1026,296)"/>
<path d="M0 0 C1.32 0 2.64 0 4 0 C2.5741914 3.45195767 0.90253666 5.1014256 -2.125 7.25 C-3.21167969 8.03117187 -3.21167969 8.03117187 -4.3203125 8.828125 C-4.87460937 9.21484375 -5.42890625 9.6015625 -6 10 C-5.67 7.36 -5.34 4.72 -5 2 C-4.360625 1.855625 -3.72125 1.71125 -3.0625 1.5625 C-1.02454854 1.18992819 -1.02454854 1.18992819 0 0 Z " fill="#E9E9E9" transform="translate(732,273)"/>
<path d="M0 0 C1.98 0 3.96 0 6 0 C5.34 3.3 4.68 6.6 4 10 C3.34 10 2.68 10 2 10 C1.67 10.66 1.34 11.32 1 12 C1.020625 11.278125 1.04125 10.55625 1.0625 9.8125 C1.00174795 7.07865796 0.59162333 4.66230499 0 2 C0 1.33333333 0 0.66666667 0 0 Z " fill="#151515" transform="translate(682,270)"/>
<path d="M0 0 C0.66 0.33 1.32 0.66 2 1 C1.360625 1.763125 0.72125 2.52625 0.0625 3.3125 C-2.14232781 5.88246713 -2.14232781 5.88246713 -3 9 C-4.77734375 9.984375 -4.77734375 9.984375 -6.9375 10.75 C-7.64777344 11.01296875 -8.35804688 11.2759375 -9.08984375 11.546875 C-11 12 -11 12 -13 11 C-8.71 7.37 -4.42 3.74 0 0 Z " fill="#252525" transform="translate(754,259)"/>
<path d="M0 0 C1.921875 0.1953125 1.921875 0.1953125 4 1 C5.265625 2.7421875 5.265625 2.7421875 6.25 4.875 C6.58515625 5.57367188 6.9203125 6.27234375 7.265625 6.9921875 C8 9 8 9 8 12 C7.01 12 6.02 12 5 12 C4.73445313 11.45730469 4.46890625 10.91460937 4.1953125 10.35546875 C3.84210938 9.64003906 3.48890625 8.92460937 3.125 8.1875 C2.77695313 7.47980469 2.42890625 6.77210938 2.0703125 6.04296875 C0.9343514 3.78753582 0.9343514 3.78753582 -1 1 C-0.67 0.67 -0.34 0.34 0 0 Z " fill="#080808" transform="translate(1088,257)"/>
<path d="M0 0 C3.88019859 1.25844278 5.9411842 2.42416203 8 6 C8 6.99 8 7.98 8 9 C7.01 9.33 6.02 9.66 5 10 C4.731875 9.401875 4.46375 8.80375 4.1875 8.1875 C3.11977597 5.95732387 3.11977597 5.95732387 1.375 4.4375 C0 3 0 3 0 0 Z " fill="#1C1C1C" transform="translate(1056,271)"/>
<path d="M0 0 C0 0.99 0 1.98 0 3 C0.66 3 1.32 3 2 3 C1.34 4.32 0.68 5.64 0 7 C-0.99 7 -1.98 7 -3 7 C-2.34 5.02 -1.68 3.04 -1 1 C-7.27 1 -13.54 1 -20 1 C-20 0.67 -20 0.34 -20 0 C-17.60458732 -0.19585135 -15.20907226 -0.38192107 -12.8125 -0.5625 C-11.80219727 -0.64661133 -11.80219727 -0.64661133 -10.77148438 -0.73242188 C-6.982869 -1.00963763 -3.68172206 -0.96511161 0 0 Z " fill="#1F1F1F" transform="translate(278,265)"/>
<path d="M0 0 C0.66 1.32 1.32 2.64 2 4 C-0.31 5.32 -2.62 6.64 -5 8 C-5.66 6.68 -6.32 5.36 -7 4 C-5.75 2.4375 -5.75 2.4375 -4 1 C-1.8125 1.3125 -1.8125 1.3125 0 2 C0 1.34 0 0.68 0 0 Z " fill="#131313" transform="translate(272,305)"/>
<path d="M0 0 C0.66 0.33 1.32 0.66 2 1 C1.57709963 2.96153791 1.13618382 4.91919875 0.6875 6.875 C0.44386719 7.96554687 0.20023438 9.05609375 -0.05078125 10.1796875 C-1 13 -1 13 -4 15 C-4.50610724 8.92671312 -3.04157942 5.22771463 0 0 Z " fill="#0C0C0C" transform="translate(1101,283)"/>
<path d="M0 0 C2.8203125 -0.29296875 2.8203125 -0.29296875 6.125 -0.1875 C7.76855469 -0.14689453 7.76855469 -0.14689453 9.4453125 -0.10546875 C10.28835938 -0.07066406 11.13140625 -0.03585937 12 0 C12.33 0.99 12.66 1.98 13 3 C8.05 3 3.1 3 -2 3 C-1.34 2.01 -0.68 1.02 0 0 Z " fill="#F3F3F3" transform="translate(901,340)"/>
<path d="M0 0 C4.32920863 4.32920863 4.125 10.70918435 4.125 16.5 C4.09323089 18.33353155 4.05498946 20.1670179 4 22 C3.67 22 3.34 22 3 22 C2.92652344 21.06027344 2.92652344 21.06027344 2.8515625 20.1015625 C2.77679687 19.28429687 2.70203125 18.46703125 2.625 17.625 C2.55539062 16.81289063 2.48578125 16.00078125 2.4140625 15.1640625 C2.17107412 12.79665809 2.17107412 12.79665809 0 11 C-0.1953125 8.3984375 -0.1953125 8.3984375 -0.125 5.375 C-0.10695313 4.37210937 -0.08890625 3.36921875 -0.0703125 2.3359375 C-0.04710937 1.56507813 -0.02390625 0.79421875 0 0 Z " fill="#A4A4A4" transform="translate(1091,264)"/>
<path d="M0 0 C0.93423645 3.01031744 1.04449911 3.86650268 0 7 C-1.6875 7.5625 -1.6875 7.5625 -4 8 C-4.99 8.37125 -5.98 8.7425 -7 9.125 C-10.0858751 10.0250469 -11.05488226 9.90130758 -14 9 C-13.32453125 8.76925781 -12.6490625 8.53851563 -11.953125 8.30078125 C-6.67604499 6.3714442 -3.05250408 4.99500668 0 0 Z " fill="#BFBFBF" transform="translate(1062,291)"/>
<path d="M0 0 C2.95929119 2.75520215 5.03681826 5.46627288 7 9 C5.1875 9.6875 5.1875 9.6875 3 10 C0.6041675 8.40277833 0.06001766 7.20506033 -0.75 4.4375 C-1 2 -1 2 0 0 Z " fill="#232323" transform="translate(209,216)"/>
<path d="M0 0 C0.66 0.66 1.32 1.32 2 2 C1.70526892 5.83150404 0.7659912 7.4552881 -2 10 C-3.17574711 12.09989652 -3.17574711 12.09989652 -4 14 C-4.33 13.34 -4.66 12.68 -5 12 C-4.26821134 9.92803369 -3.44100997 7.8891448 -2.5625 5.875 C-2.08941406 4.77929688 -1.61632812 3.68359375 -1.12890625 2.5546875 C-0.75636719 1.71164062 -0.38382813 0.86859375 0 0 Z " fill="#323232" transform="translate(237,362)"/>
<path d="M0 0 C0.33 0.66 0.66 1.32 1 2 C0.67 2.66 0.34 3.32 0 4 C0.66 4.33 1.32 4.66 2 5 C1.360625 5.433125 0.72125 5.86625 0.0625 6.3125 C-2.26746003 7.91239177 -2.26746003 7.91239177 -3 11 C-4.32 10.34 -5.64 9.68 -7 9 C-5.625 7 -5.625 7 -4 5 C-3.34 5 -2.68 5 -2 5 C-1.34 3.35 -0.68 1.7 0 0 Z " fill="#2C2C2C" transform="translate(399,267)"/>
<path d="M0 0 C0.99 0.33 1.98 0.66 3 1 C4.31404708 4.58376476 4.2089448 7.37316559 3 11 C1 10 1 10 0 9 C-0.07179964 7.48071962 -0.08392007 5.95832518 -0.0625 4.4375 C-0.05347656 3.61121094 -0.04445313 2.78492188 -0.03515625 1.93359375 C-0.02355469 1.29550781 -0.01195312 0.65742188 0 0 Z " fill="#323232" transform="translate(320,221)"/>
<path d="M0 0 C0.99 0.99 1.98 1.98 3 3 C3.66 2.01 4.32 1.02 5 0 C5 0.66 5 1.32 5 2 C5.66 2 6.32 2 7 2 C6.67 3.65 6.34 5.3 6 7 C4.125 6.6875 4.125 6.6875 2 6 C0 3 0 3 0 0 Z " fill="#0F0F0F" transform="translate(353,365)"/>
<path d="M0 0 C0.66 0.66 1.32 1.32 2 2 C1.625 4.625 1.625 4.625 1 7 C1.33 7 1.66 7 2 7 C2 8.65 2 10.3 2 12 C1.34 11.67 0.68 11.34 0 11 C-0.66 11.99 -1.32 12.98 -2 14 C-1.85795259 12.41632253 -1.71119847 10.83306682 -1.5625 9.25 C-1.48128906 8.36828125 -1.40007813 7.4865625 -1.31640625 6.578125 C-1.03761535 4.30649548 -0.61209423 2.20148177 0 0 Z " fill="#C2C2C2" transform="translate(548,336)"/>
<path d="M0 0 C1.10844919 3.32534757 0.84454356 5.62182575 0 9 C0.66 9 1.32 9 2 9 C0.74821404 11.50357192 -0.99981158 13.06433379 -3 15 C-2.44854729 9.76119922 -1.57077907 5.02649303 0 0 Z " fill="#1A1A1A" transform="translate(1020,325)"/>
<path d="M0 0 C1.12377697 3.30435084 0.89554742 5.0506862 -0.4375 8.25 C-0.72496094 8.95640625 -1.01242187 9.6628125 -1.30859375 10.390625 C-1.53675781 10.92171875 -1.76492188 11.4528125 -2 12 C-1.34 12 -0.68 12 0 12 C-1.25541557 14.51083114 -2.50063488 14.87125446 -5 16 C-3.41078475 10.63904723 -1.81027062 5.29156027 0 0 Z " fill="#4E4E4E" transform="translate(1215,306)"/>
<path d="M0 0 C0.99 0 1.98 0 3 0 C2.51171875 6.0546875 2.51171875 6.0546875 2 8 C1.01 8.66 0.02 9.32 -1 10 C-0.67 6.7 -0.34 3.4 0 0 Z " fill="#101010" transform="translate(442,304)"/>
<path d="M0 0 C0.66 0.66 1.32 1.32 2 2 C1.67028521 5.29714793 1.3773161 6.6226839 -1 9 C-1.66 7.02 -2.32 5.04 -3 3 C-2.01 2.01 -1.02 1.02 0 0 Z " fill="#0D0D0D" transform="translate(1214,263)"/>
<path d="M0 0 C0.66 0.99 1.32 1.98 2 3 C1.34 3 0.68 3 0 3 C0 3.66 0 4.32 0 5 C0.99 5.33 1.98 5.66 3 6 C1.35 7.32 -0.3 8.64 -2 10 C-3.39195915 5.82412255 -1.82323219 3.86525224 0 0 Z " fill="#252525" transform="translate(258,312)"/>
<path d="M0 0 C0.99 0.99 1.98 1.98 3 3 C2.34 4.32 1.68 5.64 1 7 C1 6.34 1 5.68 1 5 C0.34 5 -0.32 5 -1 5 C-1.33 5.66 -1.66 6.32 -2 7 C-2.66 6.34 -3.32 5.68 -4 5 C-2.68 3.35 -1.36 1.7 0 0 Z " fill="#171717" transform="translate(365,312)"/>
<path d="M0 0 C2.64 0.66 5.28 1.32 8 2 C7.67 2.99 7.34 3.98 7 5 C4.03 4.505 4.03 4.505 1 4 C0.67 2.68 0.34 1.36 0 0 Z " fill="#E1E2E1" transform="translate(285,330)"/>
<path d="M0 0 C2.475 0.495 2.475 0.495 5 1 C6.8125 4.0625 6.8125 4.0625 8 7 C7.34 7.66 6.68 8.32 6 9 C4.02 6.03 2.04 3.06 0 0 Z " fill="#141414" transform="translate(360,378)"/>
<path d="M0 0 C0.66 0.33 1.32 0.66 2 1 C0.4375 3.5625 0.4375 3.5625 -2 6 C-5.75 5.8125 -5.75 5.8125 -9 5 C-8.443125 4.731875 -7.88625 4.46375 -7.3125 4.1875 C-4.90178463 2.99670459 -4.90178463 2.99670459 -2.375 1.3125 C-1.59125 0.879375 -0.8075 0.44625 0 0 Z " fill="#D1D1D1" transform="translate(509,296)"/>
<path d="M0 0 C0.99 0.66 1.98 1.32 3 2 C2.25 4.875 2.25 4.875 1 8 C-0.98 8.99 -0.98 8.99 -3 10 C-2.01 6.7 -1.02 3.4 0 0 Z " fill="#DADADA" transform="translate(205,290)"/>
<path d="M0 0 C0.66 0.33 1.32 0.66 2 1 C-1.625 5.875 -1.625 5.875 -5 7 C-5.66 7.66 -6.32 8.32 -7 9 C-7.66 8.34 -8.32 7.68 -9 7 C-6.03 4.69 -3.06 2.38 0 0 Z " fill="#DDDDDD" transform="translate(302,286)"/>
<path d="M0 0 C1.9375 0.1875 1.9375 0.1875 4 1 C5.25 3.0625 5.25 3.0625 6 5 C3.03 4.505 3.03 4.505 0 4 C-0.33 3.01 -0.66 2.02 -1 1 C-0.67 0.67 -0.34 0.34 0 0 Z " fill="#181818" transform="translate(1177,275)"/>
<path d="M0 0 C0.75 1.75 0.75 1.75 1 4 C-0.9375 6.25 -0.9375 6.25 -3 8 C-3.66 7.67 -4.32 7.34 -5 7 C-3.70700306 4.11562221 -2.34058637 2.12780579 0 0 Z " fill="#DEDEDE" transform="translate(346,264)"/>
<path d="M0 0 C1.5625 1.1875 1.5625 1.1875 3 3 C2.8125 5.625 2.8125 5.625 2 8 C1.01 8.495 1.01 8.495 0 9 C-0.66 9.99 -1.32 10.98 -2 12 C-1.44687265 7.97007218 -0.8441938 3.97977076 0 0 Z " fill="#CCCCCC" transform="translate(445,304)"/>
<path d="M0 0 C0.66 0 1.32 0 2 0 C2.33 1.98 2.66 3.96 3 6 C2.01 6.33 1.02 6.66 0 7 C-0.66 7.66 -1.32 8.32 -2 9 C-2.33 8.01 -2.66 7.02 -3 6 C-2.505 5.566875 -2.01 5.13375 -1.5 4.6875 C0.33218192 3.00259517 0.33218192 3.00259517 0 0 Z " fill="#303030" transform="translate(829,297)"/>
<path d="M0 0 C1.875 0.25 1.875 0.25 4 1 C5.25 3.0625 5.25 3.0625 6 5 C4.68 5.33 3.36 5.66 2 6 C0 3 0 3 0 0 Z " fill="#1D1D1D" transform="translate(282,369)"/>
<path d="M0 0 C1.3921875 0.3403125 1.3921875 0.3403125 2.8125 0.6875 C2.4825 1.6775 2.1525 2.6675 1.8125 3.6875 C-0.8275 3.3575 -3.4675 3.0275 -6.1875 2.6875 C-4.14987265 -0.14253799 -3.59070275 -0.35202968 0 0 Z " fill="#323232" transform="translate(328.1875,339.3125)"/>
<path d="M0 0 C0.66 0 1.32 0 2 0 C2 1.65 2 3.3 2 5 C1.34 4.67 0.68 4.34 0 4 C-1.70702735 3.93003986 -3.41668003 3.91559846 -5.125 3.9375 C-6.03507813 3.94652344 -6.94515625 3.95554687 -7.8828125 3.96484375 C-8.93082031 3.98224609 -8.93082031 3.98224609 -10 4 C-10 3.67 -10 3.34 -10 3 C-7.03 3 -4.06 3 -1 3 C-0.67 2.01 -0.34 1.02 0 0 Z " fill="#F1F1F1" transform="translate(634,331)"/>
<path d="M0 0 C2.5654594 2.5654594 2.54046087 4.47686668 3 8 C1.68 8 0.36 8 -1 8 C-0.67 5.36 -0.34 2.72 0 0 Z " fill="#111111" transform="translate(876,320)"/>
<path d="M0 0 C0.99 0.33 1.98 0.66 3 1 C2.67 2.65 2.34 4.3 2 6 C1.34 6 0.68 6 0 6 C-0.33 6.66 -0.66 7.32 -1 8 C-0.67 5.36 -0.34 2.72 0 0 Z " fill="#252525" transform="translate(713,288)"/>
<path d="M0 0 C3.3 0 6.6 0 10 0 C10 0.99 10 1.98 10 3 C6.7 2.34 3.4 1.68 0 1 C0 0.67 0 0.34 0 0 Z " fill="#191B1A" transform="translate(283,329)"/>
<path d="M0 0 C1.65 0.33 3.3 0.66 5 1 C5 1.99 5 2.98 5 4 C4.38125 4.28875 3.7625 4.5775 3.125 4.875 C0.86674235 5.93720042 0.86674235 5.93720042 -1 8 C-0.67 5.36 -0.34 2.72 0 0 Z " fill="#292929" transform="translate(977,300)"/>
<path d="M0 0 C0.66 0.99 1.32 1.98 2 3 C-0.97 5.475 -0.97 5.475 -4 8 C-4.66 7.67 -5.32 7.34 -6 7 C-4.02 4.69 -2.04 2.38 0 0 Z " fill="#D0D0D0" transform="translate(926,292)"/>
<path d="M0 0 C0.66 0 1.32 0 2 0 C2 1.98 2 3.96 2 6 C1.01 6 0.02 6 -1 6 C-1.33 5.01 -1.66 4.02 -2 3 C-1.34 2.01 -0.68 1.02 0 0 Z " fill="#0E0E0E" transform="translate(749,241)"/>
<path d="M0 0 C0.33 0.66 0.66 1.32 1 2 C1.66 2.33 2.32 2.66 3 3 C2 6 2 6 0 7 C-0.66 7.99 -1.32 8.98 -2 10 C-1.54177532 6.53058454 -1.10868317 3.32604951 0 0 Z " fill="#252525" transform="translate(637,330)"/>
<path d="M0 0 C1.10844919 3.32534757 0.84454356 5.62182575 0 9 C0.66 9.33 1.32 9.66 2 10 C0.02 10.99 0.02 10.99 -2 12 C-1.85831863 10.56208484 -1.71148957 9.1246763 -1.5625 7.6875 C-1.48128906 6.88699219 -1.40007813 6.08648437 -1.31640625 5.26171875 C-1 3 -1 3 0 0 Z " fill="#414141" transform="translate(706,320)"/>
<path d="M0 0 C0.66 0.33 1.32 0.66 2 1 C1.1875 2.9375 1.1875 2.9375 0 5 C-0.99 5.33 -1.98 5.66 -3 6 C-3 4.68 -3 3.36 -3 2 C-2.01 1.34 -1.02 0.68 0 0 Z " fill="#202020" transform="translate(808,316)"/>
<path d="M0 0 C0.66 0.33 1.32 0.66 2 1 C0.1875 3.5 0.1875 3.5 -2 6 C-5 6 -5 6 -7 5 C-4.69 3.35 -2.38 1.7 0 0 Z " fill="#444444" transform="translate(1078,313)"/>
<path d="M0 0 C0.66 0.33 1.32 0.66 2 1 C1.360625 1.78375 0.72125 2.5675 0.0625 3.375 C-1.98142313 5.79539281 -1.98142313 5.79539281 -3 8 C-3.66 8 -4.32 8 -5 8 C-4.64950425 4.75791433 -4.43778819 3.38472296 -1.9375 1.1875 C-1.298125 0.795625 -0.65875 0.40375 0 0 Z " fill="#252525" transform="translate(824,304)"/>
<path d="M0 0 C0.99 0.33 1.98 0.66 3 1 C3.6875 3.0625 3.6875 3.0625 4 5 C2.35 5 0.7 5 -1 5 C-1.33 3.68 -1.66 2.36 -2 1 C-1.34 0.67 -0.68 0.34 0 0 Z " fill="#1F1F1F" transform="translate(911,295)"/>
<path d="M0 0 C1.62490954 -0.02698189 3.24994633 -0.04638757 4.875 -0.0625 C5.77992188 -0.07410156 6.68484375 -0.08570313 7.6171875 -0.09765625 C10 0 10 0 12 1 C11.67 2.32 11.34 3.64 11 5 C10.67 4.525625 10.34 4.05125 10 3.5625 C6.90186733 1.14208385 3.87973208 1.31801083 0 1 C0 0.67 0 0.34 0 0 Z " fill="#080808" transform="translate(672,270)"/>
<path d="M0 0 C0 0.99 0 1.98 0 3 C-3.3 2.34 -6.6 1.68 -10 1 C-10 0.67 -10 0.34 -10 0 C-6.33694766 -0.74926071 -3.57644848 -1.2380014 0 0 Z " fill="#232323" transform="translate(1186,245)"/>
<path d="M0 0 C1.485 0.99 1.485 0.99 3 2 C3.1875 4.625 3.1875 4.625 3 7 C2.34 7 1.68 7 1 7 C0.34 7.66 -0.32 8.32 -1 9 C-0.67 6.03 -0.34 3.06 0 0 Z " fill="#333333" transform="translate(873,331)"/>
<path d="M0 0 C0.33 0 0.66 0 1 0 C1 2.31 1 4.62 1 7 C1.66 7.33 2.32 7.66 3 8 C2.67 8.66 2.34 9.32 2 10 C1.01 10 0.02 10 -1 10 C-0.67 6.7 -0.34 3.4 0 0 Z " fill="#4A4A4A" transform="translate(309,293)"/>
<path d="M0 0 C2 3 2 3 2 7 C0.68 6.67 -0.64 6.34 -2 6 C-1.34 5.67 -0.68 5.34 0 5 C-0.66 3.68 -1.32 2.36 -2 1 C-1.34 0.67 -0.68 0.34 0 0 Z " fill="#161616" transform="translate(822,282)"/>
<path d="M0 0 C2.0625 0.4375 2.0625 0.4375 4 1 C3.67 2.65 3.34 4.3 3 6 C1.68 4.35 0.36 2.7 -1 1 C-0.67 0.67 -0.34 0.34 0 0 Z " fill="#171717" transform="translate(1088,257)"/>
</svg>
